<?xml version="1.0" encoding="UTF-8" standalone="no"?>
<svg
   xmlns:dc="http://purl.org/dc/elements/1.1/"
   xmlns:cc="http://creativecommons.org/ns#"
   xmlns:rdf="http://www.w3.org/1999/02/22-rdf-syntax-ns#"
   xmlns:svg="http://www.w3.org/2000/svg"
   xmlns="http://www.w3.org/2000/svg"
   xmlns:sodipodi="http://sodipodi.sourceforge.net/DTD/sodipodi-0.dtd"
   xmlns:inkscape="http://www.inkscape.org/namespaces/inkscape"
   inkscape:version="1.0 (4035a4fb49, 2020-05-01)"
   sodipodi:docname="twitter.svg"
   id="svg4"
   version="1.1"
   viewBox="0 0 24 24"
   height="24"
   width="24">
  <metadata
     id="metadata10">
    <rdf:RDF>
      <cc:Work
         rdf:about="">
        <dc:format>image/svg+xml</dc:format>
        <dc:type
           rdf:resource="http://purl.org/dc/dcmitype/StillImage" />
      </cc:Work>
    </rdf:RDF>
  </metadata>
  <defs
     id="defs8" />
  <sodipodi:namedview
     inkscape:current-layer="svg4"
     inkscape:window-maximized="1"
     inkscape:window-y="-8"
     inkscape:window-x="-8"
     inkscape:cy="7.6013665"
     inkscape:cx="12"
     inkscape:zoom="35.416667"
     showgrid="false"
     id="namedview6"
     inkscape:window-height="1017"
     inkscape:window-width="1920"
     inkscape:pageshadow="2"
     inkscape:pageopacity="0"
     guidetolerance="10"
     gridtolerance="10"
     objecttolerance="10"
     borderopacity="1"
     bordercolor="#666666"
     pagecolor="#ffffff" />
  <path
     style="stroke-width:0.740549"
     id="path2"
     d="M 17.435295,0.11294118 H 6.96 c -2.0658777,0 -3.7411765,1.64105532 -3.7411765,3.66470582 v 10.261176 c 0,2.023651 1.6752988,3.664707 3.7411765,3.664707 h 10.475295 c 2.066625,0 3.741176,-1.641056 3.741176,-3.664707 V 3.777647 c 0,-2.0236505 -1.674551,-3.66470582 -3.741176,-3.66470582 z M 17.331289,6.8831188 c 0.156382,3.3839892 -2.419792,7.1571712 -6.981035,7.1571712 -1.3872281,0 -2.677934,-0.397987 -3.76512,-1.081089 1.303426,0.150253 2.6038589,-0.203758 3.636424,-0.996067 -1.0752145,-0.01979 -1.9820757,-0.715351 -2.2940898,-1.671106 0.3853412,0.07183 0.7639482,0.05057 1.1088847,-0.04105 C 7.8548894,10.018641 7.0400611,8.9763988 7.0662494,7.8615954 7.3969694,8.0418988 7.7763247,8.1503741 8.178127,8.1628341 7.0849552,7.4467506 6.7751859,6.0321741 7.41792,4.950353 c 1.2113929,1.4556211 3.021374,2.4135753 5.06256,2.5139882 -0.358405,-1.5047282 0.808095,-2.9537529 2.393605,-2.9537529 0.705586,0 1.344579,0.2917105 1.792024,0.76006 0.55968,-0.1077424 1.085689,-0.3078353 1.560819,-0.5834213 -0.184067,0.562166 -0.573149,1.0334471 -1.079704,1.3310213 0.496828,-0.058635 0.970461,-0.1876329 1.410424,-0.3789306 -0.328476,0.4808093 -0.745243,0.9044493 -1.226359,1.2438011 z" />
</svg>
