<?xml version="1.0" standalone="no"?>
<!DOCTYPE svg PUBLIC "-//W3C//DTD SVG 20010904//EN"
 "http://www.w3.org/TR/2001/REC-SVG-20010904/DTD/svg10.dtd">
<svg version="1.0" xmlns="http://www.w3.org/2000/svg"
 width="225.000000pt" height="225.000000pt" viewBox="0 0 225.000000 225.000000"
 preserveAspectRatio="xMidYMid meet">

<g transform="translate(0.000000,225.000000) scale(0.100000,-0.100000)"
fill="#000000" stroke="none">
<path d="M990 2239 c-366 -42 -703 -280 -870 -616 -42 -86 -82 -205 -101 -303
-16 -84 -16 -306 0 -390 69 -357 291 -652 610 -810 84 -42 203 -82 301 -101
84 -16 306 -16 390 0 357 69 652 291 810 610 42 84 82 203 101 301 16 84 16
306 0 390 -46 236 -157 444 -324 607 -180 176 -409 284 -660 312 -108 12 -149
12 -257 0z m-432 -971 c7 -9 2 -51 -15 -133 -14 -66 -27 -122 -29 -125 -3 -2
-34 -6 -69 -8 -58 -4 -66 -2 -89 21 -63 63 7 177 108 177 21 0 25 6 31 40 6
33 11 40 30 40 12 0 27 -6 33 -12z m476 -7 c4 -5 -1 -38 -9 -73 -22 -94 -19
-98 31 -45 35 36 53 47 77 47 l31 0 -46 -47 -46 -48 24 -48 25 -48 -33 3 c-27
2 -37 11 -58 48 l-25 45 -8 -47 c-9 -45 -11 -48 -39 -48 -27 0 -30 3 -24 23 3
12 16 73 28 135 20 103 24 112 44 112 13 0 25 -4 28 -9z m-324 -71 c29 -15 42
-47 35 -81 -6 -27 -9 -29 -58 -30 -29 0 -60 -4 -70 -8 -17 -6 -17 -8 -3 -20
11 -9 29 -11 56 -7 35 5 42 4 48 -15 8 -19 11 -17 45 25 l38 45 -21 40 c-11
22 -20 45 -20 51 0 19 41 10 63 -14 l22 -24 28 24 c34 29 83 34 68 6 -5 -9
-19 -26 -31 -37 -39 -35 -42 -51 -20 -94 26 -51 26 -51 -10 -51 -21 0 -33 7
-43 26 l-14 26 -16 -25 c-16 -25 -19 -26 -123 -24 -104 2 -107 3 -127 29 -18
24 -19 32 -9 66 22 73 108 121 162 92z m793 -18 c38 -33 12 -129 -43 -157 -58
-30 -115 -11 -120 40 -6 53 1 78 30 105 43 41 94 45 133 12z m415 13 c10 -10
-13 -25 -38 -25 -45 0 -47 -20 -7 -53 42 -33 46 -58 17 -87 -32 -32 -131 -24
-111 9 6 9 18 11 40 6 46 -10 54 19 12 52 -46 36 -38 84 19 106 14 5 61 0 68
-8z m-598 -15 c8 -15 8 -37 0 -78 -18 -89 -19 -92 -46 -92 -28 0 -27 -4 -9 80
15 69 9 86 -23 76 -15 -5 -23 -23 -34 -79 -12 -67 -15 -72 -41 -75 -15 -2 -27
1 -27 6 0 32 34 168 44 174 6 4 37 8 68 8 48 0 59 -3 68 -20z m262 -33 c4 -27
8 -51 11 -53 2 -2 14 21 26 51 19 45 27 55 46 55 22 0 25 -6 31 -62 l7 -63 28
63 c21 47 33 62 49 62 11 0 20 -2 20 -4 0 -2 -18 -44 -39 -92 -33 -74 -44 -89
-63 -89 -20 0 -24 7 -33 60 l-11 60 -28 -62 c-23 -50 -33 -63 -51 -63 -20 0
-23 7 -29 53 -4 28 -9 72 -12 95 -6 42 -5 44 17 40 20 -2 25 -11 31 -51z"/>
<path d="M420 1133 c-30 -38 -24 -88 10 -88 22 0 25 6 36 58 10 52 10 57 -7
57 -10 0 -27 -12 -39 -27z"/>
<path d="M628 1138 c-26 -26 -14 -33 38 -23 26 4 34 10 30 21 -3 9 -6 18 -6
20 0 13 -43 1 -62 -18z"/>
<path d="M1411 1146 c-19 -22 -25 -84 -11 -101 28 -33 77 41 63 95 -6 23 -35
27 -52 6z"/>
</g>
</svg>
